<svg width="104" height="42" viewBox="0 0 104 42" fill="none" xmlns="http://www.w3.org/2000/svg">
<path d="M0 5C0 2.23858 2.23858 0 5 0H81.0886C82.3715 0 83.6053 0.493127 84.5348 1.37737L100.387 16.458C102.384 18.3576 102.467 21.5148 100.573 23.5169L84.5664 40.4362C83.622 41.4345 82.3084 42 80.9343 42H5C2.23858 42 0 39.7614 0 37V5Z" fill="#292929"/>
<path d="M24.1426 20.1582C24.1426 21.1152 23.8594 21.8555 23.293 22.3789C22.7305 22.8984 21.9297 23.1582 20.8906 23.1582H20.2402V26H17.9258V17.4336H20.8906C21.9727 17.4336 22.7852 17.6699 23.3281 18.1426C23.8711 18.6152 24.1426 19.2871 24.1426 20.1582ZM20.2402 21.2715H20.6621C21.0098 21.2715 21.2852 21.1738 21.4883 20.9785C21.6953 20.7832 21.7988 20.5137 21.7988 20.1699C21.7988 19.5918 21.4785 19.3027 20.8379 19.3027H20.2402V21.2715ZM28.4223 22.8828V26H26.1078V17.4336H28.9145C31.2426 17.4336 32.4066 18.2773 32.4066 19.9648C32.4066 20.957 31.9223 21.7246 30.9535 22.2676L33.4496 26H30.8246L29.0082 22.8828H28.4223ZM28.4223 21.1426H28.8559C29.6645 21.1426 30.0688 20.7852 30.0688 20.0703C30.0688 19.4805 29.6723 19.1855 28.8793 19.1855H28.4223V21.1426ZM42.8445 21.7051C42.8445 23.1465 42.491 24.2422 41.784 24.9922C41.077 25.7422 40.0418 26.1172 38.6785 26.1172C37.3348 26.1172 36.3035 25.7402 35.5848 24.9863C34.8699 24.2324 34.5125 23.1348 34.5125 21.6934C34.5125 20.2676 34.868 19.1797 35.5789 18.4297C36.2938 17.6758 37.3309 17.2988 38.6902 17.2988C40.0535 17.2988 41.0867 17.6719 41.7898 18.418C42.493 19.1641 42.8445 20.2598 42.8445 21.7051ZM36.95 21.7051C36.95 23.3613 37.5262 24.1895 38.6785 24.1895C39.2645 24.1895 39.698 23.9883 39.9793 23.5859C40.2645 23.1836 40.407 22.5566 40.407 21.7051C40.407 20.8496 40.2625 20.2188 39.9734 19.8125C39.6883 19.4023 39.2605 19.1973 38.6902 19.1973C37.5301 19.1973 36.95 20.0332 36.95 21.7051ZM48.8059 19.209C48.2551 19.209 47.8254 19.4355 47.5168 19.8887C47.2082 20.3379 47.0539 20.959 47.0539 21.752C47.0539 23.4004 47.6809 24.2246 48.9348 24.2246C49.3137 24.2246 49.6809 24.1719 50.0363 24.0664C50.3918 23.9609 50.7492 23.834 51.1086 23.6855V25.6426C50.3937 25.959 49.5852 26.1172 48.6828 26.1172C47.3898 26.1172 46.3977 25.7422 45.7062 24.9922C45.0187 24.2422 44.675 23.1582 44.675 21.7402C44.675 20.8535 44.841 20.0742 45.173 19.4023C45.509 18.7305 45.9895 18.2148 46.6145 17.8555C47.2434 17.4922 47.9816 17.3105 48.8293 17.3105C49.7551 17.3105 50.6398 17.5117 51.4836 17.9141L50.7746 19.7363C50.4582 19.5879 50.1418 19.4629 49.8254 19.3613C49.509 19.2598 49.1691 19.209 48.8059 19.209ZM58.4703 26H53.3844V17.4336H58.4703V19.291H55.6988V20.6387H58.2652V22.4961H55.6988V24.1133H58.4703V26ZM65.6562 26H60.5703V17.4336H65.6562V19.291H62.8848V20.6387H65.4512V22.4961H62.8848V24.1133H65.6562V26ZM75.0277 21.5352C75.0277 22.9648 74.6332 24.0664 73.8441 24.8398C73.059 25.6133 71.9535 26 70.5277 26H67.7562V17.4336H70.7211C72.0961 17.4336 73.1566 17.7852 73.9027 18.4883C74.6527 19.1914 75.0277 20.207 75.0277 21.5352ZM72.6254 21.6172C72.6254 20.832 72.4691 20.25 72.1566 19.8711C71.848 19.4922 71.3773 19.3027 70.7445 19.3027H70.0707V24.1016H70.5863C71.2895 24.1016 71.8051 23.8984 72.1332 23.4922C72.4613 23.082 72.6254 22.457 72.6254 21.6172Z" fill="#C8C8C8"/>
</svg>
