<svg width="159" height="67" viewBox="0 0 159 67" fill="none" xmlns="http://www.w3.org/2000/svg">
<g filter="url(#filter0_d)">
<path fill-rule="evenodd" clip-rule="evenodd" d="M39.3367 26.1958C40.0207 26.7935 40.0206 27.8571 39.3367 28.4548L24.207 41.6771C23.237 42.5248 21.72 41.8359 21.72 40.5476V14.103C21.72 12.8147 23.237 12.1258 24.207 12.9736L39.3367 26.1958ZM26.942 27.1075C26.942 28.0689 26.1626 28.8483 25.2011 28.8483C24.2397 28.8483 23.4603 28.0689 23.4603 27.1075C23.4603 26.1461 24.2397 25.3667 25.2011 25.3667C26.1626 25.3667 26.942 26.1461 26.942 27.1075ZM31.7299 28.8483C32.6914 28.8483 33.4708 28.0689 33.4708 27.1075C33.4708 26.1461 32.6914 25.3667 31.7299 25.3667C30.7685 25.3667 29.9891 26.1461 29.9891 27.1075C29.9891 28.0689 30.7685 28.8483 31.7299 28.8483ZM26.942 19.7619C26.942 20.7192 26.1626 21.4952 25.2011 21.4952C24.2397 21.4952 23.4603 20.7192 23.4603 19.7619C23.4603 18.8046 24.2397 18.0285 25.2011 18.0285C26.1626 18.0285 26.942 18.8046 26.942 19.7619ZM25.2011 36.622C26.1626 36.622 26.942 35.8426 26.942 34.8811C26.942 33.9197 26.1626 33.1403 25.2011 33.1403C24.2397 33.1403 23.4603 33.9197 23.4603 34.8811C23.4603 35.8426 24.2397 36.622 25.2011 36.622ZM16.5283 27.1075C16.5283 28.069 17.3077 28.8484 18.2692 28.8484C19.2306 28.8484 20.01 28.069 20.01 27.1075C20.01 26.1461 19.2306 25.3667 18.2692 25.3667C17.3077 25.3667 16.5283 26.1461 16.5283 27.1075ZM11.7408 28.8484C10.7794 28.8484 10 28.069 10 27.1075C10 26.1461 10.7794 25.3667 11.7408 25.3667C12.7023 25.3667 13.4817 26.1461 13.4817 27.1075C13.4817 28.069 12.7023 28.8484 11.7408 28.8484ZM16.5283 19.7619C16.5283 20.7192 17.3077 21.4952 18.2692 21.4952C19.2306 21.4952 20.01 20.7192 20.01 19.7619C20.01 18.8046 19.2306 18.0286 18.2692 18.0286C17.3077 18.0286 16.5283 18.8046 16.5283 19.7619ZM18.2692 36.6221C17.3077 36.6221 16.5283 35.8427 16.5283 34.8812C16.5283 33.9198 17.3077 33.1404 18.2692 33.1404C19.2306 33.1404 20.01 33.9198 20.01 34.8812C20.01 35.8427 19.2306 36.6221 18.2692 36.6221Z" fill="#898989"/>
<path d="M74.43 32.31C74.69 32.31 74.89 32.43 75.03 32.67C75.19 32.91 75.27 33.24 75.27 33.66C75.27 34.44 75.08 35.06 74.7 35.52C73.74 36.68 72.77 37.58 71.79 38.22C70.81 38.84 69.65 39.15 68.31 39.15C67.01 39.15 65.9 38.8 64.98 38.1C64.08 37.4 63.22 36.2 62.4 34.5C61.74 33.14 61.22 32.14 60.84 31.5C60.46 30.84 60.08 30.37 59.7 30.09C59.34 29.81 58.89 29.64 58.35 29.58C58.27 30 58.04 31.32 57.66 33.54C57.5 34.54 57.4 35.15 57.36 35.37C57.16 36.59 56.76 37.53 56.16 38.19C55.56 38.83 54.65 39.15 53.43 39.15C52.09 39.15 50.9 38.76 49.86 37.98C48.84 37.18 48.05 36.08 47.49 34.68C46.93 33.26 46.65 31.65 46.65 29.85C46.65 26.49 47.23 23.59 48.39 21.15C49.57 18.71 51.21 16.85 53.31 15.57C55.43 14.27 57.87 13.62 60.63 13.62C62.55 13.62 64.16 13.91 65.46 14.49C66.76 15.07 67.72 15.87 68.34 16.89C68.98 17.91 69.3 19.06 69.3 20.34C69.3 21.46 69.03 22.56 68.49 23.64C67.97 24.7 67.18 25.64 66.12 26.46C65.06 27.28 63.77 27.89 62.25 28.29C63.21 28.55 63.95 28.97 64.47 29.55C64.99 30.13 65.51 30.98 66.03 32.1C66.59 33.3 67.14 34.18 67.68 34.74C68.24 35.3 68.88 35.58 69.6 35.58C70.24 35.58 70.85 35.37 71.43 34.95C72.01 34.51 72.74 33.77 73.62 32.73C73.86 32.45 74.13 32.31 74.43 32.31ZM54.21 29.55C53.53 29.55 53.06 29.39 52.8 29.07C52.56 28.75 52.44 28.39 52.44 27.99C52.44 27.51 52.59 27.13 52.89 26.85C53.21 26.57 53.57 26.43 53.97 26.43H54.72C55.04 24.47 55.34 22.78 55.62 21.36C55.88 20.06 56.72 19.41 58.14 19.41C59.28 19.41 59.85 19.92 59.85 20.94C59.85 21.16 59.84 21.33 59.82 21.45L58.92 26.43C60 26.37 60.98 26.11 61.86 25.65C62.76 25.19 63.47 24.55 63.99 23.73C64.53 22.91 64.8 21.98 64.8 20.94C64.8 19.68 64.37 18.69 63.51 17.97C62.65 17.25 61.39 16.89 59.73 16.89C57.77 16.89 56.05 17.38 54.57 18.36C53.11 19.32 51.97 20.76 51.15 22.68C50.33 24.58 49.92 26.9 49.92 29.64C49.92 30.92 50.05 32.02 50.31 32.94C50.57 33.86 50.89 34.55 51.27 35.01C51.65 35.47 52.01 35.7 52.35 35.7C52.61 35.7 52.82 35.57 52.98 35.31C53.16 35.05 53.3 34.63 53.4 34.05L54.21 29.55ZM85.6305 32.31C85.8905 32.31 86.0905 32.43 86.2305 32.67C86.3905 32.91 86.4705 33.24 86.4705 33.66C86.4705 34.46 86.2805 35.08 85.9005 35.52C85.1605 36.42 84.1105 37.25 82.7505 38.01C81.4105 38.77 79.9705 39.15 78.4305 39.15C76.3305 39.15 74.7005 38.58 73.5405 37.44C72.3805 36.3 71.8005 34.74 71.8005 32.76C71.8005 31.38 72.0905 30.1 72.6705 28.92C73.2505 27.72 74.0505 26.77 75.0705 26.07C76.1105 25.37 77.2805 25.02 78.5805 25.02C79.7405 25.02 80.6705 25.37 81.3705 26.07C82.0705 26.75 82.4205 27.68 82.4205 28.86C82.4205 30.24 81.9205 31.43 80.9205 32.43C79.9405 33.41 78.2705 34.19 75.9105 34.77C76.4105 35.69 77.3605 36.15 78.7605 36.15C79.6605 36.15 80.6805 35.84 81.8205 35.22C82.9805 34.58 83.9805 33.75 84.8205 32.73C85.0605 32.45 85.3305 32.31 85.6305 32.31ZM78.0705 27.96C77.3305 27.96 76.7005 28.39 76.1805 29.25C75.6805 30.11 75.4305 31.15 75.4305 32.37V32.43C76.6105 32.15 77.5405 31.73 78.2205 31.17C78.9005 30.61 79.2405 29.96 79.2405 29.22C79.2405 28.84 79.1305 28.54 78.9105 28.32C78.7105 28.08 78.4305 27.96 78.0705 27.96ZM87.5714 39.15C86.3314 39.15 85.3414 38.7 84.6014 37.8C83.8614 36.9 83.4914 35.72 83.4914 34.26C83.4914 32.66 83.8614 31.15 84.6014 29.73C85.3414 28.29 86.3214 27.14 87.5414 26.28C88.7814 25.4 90.0914 24.96 91.4714 24.96C91.9114 24.96 92.2014 25.05 92.3414 25.23C92.5014 25.39 92.6314 25.69 92.7314 26.13C93.1514 26.05 93.5914 26.01 94.0514 26.01C95.0314 26.01 95.5214 26.36 95.5214 27.06C95.5214 27.48 95.3714 28.48 95.0714 30.06C94.6114 32.36 94.3814 33.96 94.3814 34.86C94.3814 35.16 94.4514 35.4 94.5914 35.58C94.7514 35.76 94.9514 35.85 95.1914 35.85C95.5714 35.85 96.0314 35.61 96.5714 35.13C97.1114 34.63 97.8414 33.83 98.7614 32.73C99.0014 32.45 99.2714 32.31 99.5714 32.31C99.8314 32.31 100.031 32.43 100.171 32.67C100.331 32.91 100.411 33.24 100.411 33.66C100.411 34.46 100.221 35.08 99.8414 35.52C99.0214 36.54 98.1514 37.4 97.2314 38.1C96.3114 38.8 95.4214 39.15 94.5614 39.15C93.9014 39.15 93.2914 38.93 92.7314 38.49C92.1914 38.03 91.7814 37.41 91.5014 36.63C90.4614 38.31 89.1514 39.15 87.5714 39.15ZM88.6514 36.12C89.0914 36.12 89.5114 35.86 89.9114 35.34C90.3114 34.82 90.6014 34.13 90.7814 33.27L91.8914 27.75C91.0514 27.77 90.2714 28.09 89.5514 28.71C88.8514 29.31 88.2914 30.11 87.8714 31.11C87.4514 32.11 87.2414 33.17 87.2414 34.29C87.2414 34.91 87.3614 35.37 87.6014 35.67C87.8614 35.97 88.2114 36.12 88.6514 36.12ZM100.103 39.15C99.3432 39.15 98.8032 38.75 98.4832 37.95C98.1832 37.15 98.0332 35.87 98.0332 34.11C98.0332 31.51 98.4032 29.04 99.1432 26.7C99.3232 26.12 99.6132 25.7 100.013 25.44C100.433 25.16 101.013 25.02 101.753 25.02C102.153 25.02 102.433 25.07 102.593 25.17C102.753 25.27 102.833 25.46 102.833 25.74C102.833 26.06 102.683 26.78 102.383 27.9C102.183 28.7 102.023 29.4 101.903 30C101.783 30.6 101.683 31.34 101.603 32.22C102.263 30.5 103.003 29.1 103.823 28.02C104.643 26.94 105.443 26.17 106.223 25.71C107.023 25.25 107.753 25.02 108.413 25.02C109.713 25.02 110.363 25.67 110.363 26.97C110.363 27.75 110.143 29.16 109.703 31.2C109.323 32.94 109.133 34.09 109.133 34.65C109.133 35.45 109.423 35.85 110.003 35.85C110.403 35.85 110.873 35.61 111.413 35.13C111.973 34.63 112.713 33.83 113.633 32.73C113.873 32.45 114.143 32.31 114.443 32.31C114.703 32.31 114.903 32.43 115.043 32.67C115.203 32.91 115.283 33.24 115.283 33.66C115.283 34.46 115.093 35.08 114.713 35.52C113.853 36.58 112.923 37.45 111.923 38.13C110.943 38.81 109.823 39.15 108.563 39.15C107.543 39.15 106.773 38.86 106.253 38.28C105.733 37.68 105.473 36.82 105.473 35.7C105.473 35.14 105.613 34.14 105.893 32.7C106.153 31.44 106.283 30.57 106.283 30.09C106.283 29.77 106.173 29.61 105.953 29.61C105.693 29.61 105.323 29.95 104.843 30.63C104.383 31.29 103.903 32.17 103.403 33.27C102.923 34.37 102.533 35.53 102.233 36.75C102.013 37.69 101.753 38.33 101.453 38.67C101.173 38.99 100.723 39.15 100.103 39.15ZM128.216 32.37C128.476 32.37 128.676 32.5 128.816 32.76C128.976 33 129.056 33.31 129.056 33.69C129.056 34.15 128.986 34.51 128.846 34.77C128.706 35.03 128.486 35.26 128.186 35.46C126.466 36.62 125.206 37.48 124.406 38.04L122.486 39.33C121.726 43.47 120.726 46.72 119.486 49.08C118.266 51.46 116.706 52.65 114.806 52.65C113.786 52.65 112.956 52.33 112.316 51.69C111.676 51.07 111.356 50.25 111.356 49.23C111.356 47.81 111.916 46.28 113.036 44.64C114.156 43.02 116.256 41.02 119.336 38.64L119.516 37.47C119.176 38.01 118.726 38.43 118.166 38.73C117.626 39.01 117.086 39.15 116.546 39.15C115.306 39.15 114.316 38.7 113.576 37.8C112.836 36.9 112.466 35.72 112.466 34.26C112.466 32.66 112.836 31.15 113.576 29.73C114.316 28.29 115.296 27.14 116.516 26.28C117.756 25.4 119.066 24.96 120.446 24.96C120.886 24.96 121.176 25.05 121.316 25.23C121.476 25.39 121.606 25.69 121.706 26.13C122.086 26.05 122.526 26.01 123.026 26.01C123.526 26.01 123.876 26.09 124.076 26.25C124.296 26.39 124.406 26.68 124.406 27.12C124.406 27.36 124.396 27.55 124.376 27.69C124.296 28.31 124.046 29.88 123.626 32.4C123.546 32.88 123.456 33.41 123.356 33.99C123.276 34.55 123.186 35.15 123.086 35.79C124.626 34.59 126.106 33.53 127.526 32.61C127.786 32.45 128.016 32.37 128.216 32.37ZM117.626 36.12C118.086 36.12 118.526 35.84 118.946 35.28C119.366 34.72 119.666 33.92 119.846 32.88L120.806 27.75C119.986 27.77 119.226 28.09 118.526 28.71C117.826 29.31 117.266 30.11 116.846 31.11C116.426 32.11 116.216 33.17 116.216 34.29C116.216 34.91 116.336 35.37 116.576 35.67C116.836 35.97 117.186 36.12 117.626 36.12ZM115.136 49.74C115.636 49.74 116.196 49.14 116.816 47.94C117.456 46.74 118.066 44.83 118.646 42.21C117.106 43.53 115.996 44.72 115.316 45.78C114.636 46.84 114.296 47.77 114.296 48.57C114.296 48.91 114.356 49.19 114.476 49.41C114.616 49.63 114.836 49.74 115.136 49.74ZM138.581 32.31C138.841 32.31 139.041 32.43 139.181 32.67C139.341 32.91 139.421 33.24 139.421 33.66C139.421 34.46 139.231 35.08 138.851 35.52C137.991 36.58 137.051 37.45 136.031 38.13C135.031 38.81 133.891 39.15 132.611 39.15C130.851 39.15 129.541 38.35 128.681 36.75C127.841 35.15 127.421 33.08 127.421 30.54C127.421 28.1 127.731 25.32 128.351 22.2C128.991 19.08 129.921 16.4 131.141 14.16C132.381 11.92 133.851 10.8 135.551 10.8C136.511 10.8 137.261 11.25 137.801 12.15C138.361 13.03 138.641 14.3 138.641 15.96C138.641 18.34 137.981 21.1 136.661 24.24C135.341 27.38 133.551 30.49 131.291 33.57C131.431 34.39 131.661 34.98 131.981 35.34C132.301 35.68 132.721 35.85 133.241 35.85C134.061 35.85 134.781 35.62 135.401 35.16C136.021 34.68 136.811 33.87 137.771 32.73C138.011 32.45 138.281 32.31 138.581 32.31ZM134.891 13.77C134.431 13.77 133.911 14.6 133.331 16.26C132.751 17.92 132.241 19.98 131.801 22.44C131.361 24.9 131.121 27.26 131.081 29.52C132.501 27.18 133.631 24.84 134.471 22.5C135.311 20.14 135.731 17.99 135.731 16.05C135.731 14.53 135.451 13.77 134.891 13.77ZM147.737 33.21C147.997 33.21 148.197 33.33 148.337 33.57C148.497 33.81 148.577 34.14 148.577 34.56C148.577 35.28 148.407 35.9 148.067 36.42C147.507 37.28 146.767 37.95 145.847 38.43C144.947 38.91 143.867 39.15 142.607 39.15C140.687 39.15 139.197 38.58 138.137 37.44C137.077 36.28 136.547 34.72 136.547 32.76C136.547 31.38 136.837 30.1 137.417 28.92C137.997 27.72 138.797 26.77 139.817 26.07C140.857 25.37 142.027 25.02 143.327 25.02C144.487 25.02 145.417 25.37 146.117 26.07C146.817 26.75 147.167 27.68 147.167 28.86C147.167 30.24 146.667 31.43 145.667 32.43C144.687 33.41 143.007 34.19 140.627 34.77C141.107 35.69 141.917 36.15 143.057 36.15C143.877 36.15 144.547 35.96 145.067 35.58C145.607 35.2 146.227 34.56 146.927 33.66C147.167 33.36 147.437 33.21 147.737 33.21ZM142.817 27.96C142.077 27.96 141.447 28.39 140.927 29.25C140.427 30.11 140.177 31.15 140.177 32.37V32.43C141.357 32.15 142.287 31.73 142.967 31.17C143.647 30.61 143.987 29.96 143.987 29.22C143.987 28.84 143.877 28.54 143.657 28.32C143.457 28.08 143.177 27.96 142.817 27.96Z" fill="#898989"/>
</g>
<defs>
<filter id="filter0_d" x="0" y="4.80005" width="158.577" height="61.85" filterUnits="userSpaceOnUse" color-interpolation-filters="sRGB">
<feFlood flood-opacity="0" result="BackgroundImageFix"/>
<feColorMatrix in="SourceAlpha" type="matrix" values="0 0 0 0 0 0 0 0 0 0 0 0 0 0 0 0 0 0 127 0"/>
<feOffset dy="4"/>
<feGaussianBlur stdDeviation="5"/>
<feColorMatrix type="matrix" values="0 0 0 0 0 0 0 0 0 0 0 0 0 0 0 0 0 0 0.25 0"/>
<feBlend mode="normal" in2="BackgroundImageFix" result="effect1_dropShadow"/>
<feBlend mode="normal" in="SourceGraphic" in2="effect1_dropShadow" result="shape"/>
</filter>
</defs>
</svg>
